<svg width="101" height="97" viewBox="0 0 101 97" fill="none" xmlns="http://www.w3.org/2000/svg">
<path d="M87.8055 63.7764L69.3692 74.1084C69.5327 73.132 69.4817 72.1318 69.2198 71.1772C68.9578 70.2226 68.4912 69.3365 67.8523 68.5803C67.2134 67.8242 66.4176 67.2162 65.5201 66.7986C64.6226 66.3809 63.645 66.1637 62.655 66.1619H52.3073C50.3484 66.1619 48.342 65.53 46.5094 64.361C43.8396 62.6548 40.0164 61.6753 36.0195 61.6753C30.9958 61.6753 26.4775 63.1603 23.9024 65.6406C22.1331 67.3468 19.6528 68.2947 16.9355 68.2947H11.1692V66.6517C11.1692 66.004 10.6321 65.4668 9.98436 65.4668H1.18485C0.537134 65.4668 0 66.004 0 66.6517V95.8149C0 96.4626 0.537134 96.9997 1.18485 96.9997H9.98436C10.6321 96.9997 11.1692 96.4626 11.1692 95.8149V94.472C25.7508 90.1908 43.3656 94.0613 43.6342 94.1087L45.3404 94.3456C54.9456 95.5147 65.0248 93.3662 73.6979 88.2792L94.7725 75.9251C96.4471 74.9457 97.6477 73.2869 98.0743 71.3753C98.5008 69.4637 98.0901 67.4732 96.9842 65.8776C95.9881 64.4503 94.4967 63.4447 92.8002 63.0564C91.1037 62.668 89.3233 62.9247 87.8055 63.7764ZM8.79951 94.63H2.36971V67.8365H8.79951V94.63ZM95.752 70.8855C95.4676 72.1652 94.6935 73.2237 93.5718 73.8872L72.4972 86.2413C64.2664 91.0597 54.7244 93.1134 45.6248 91.9917C45.0876 91.9285 44.5347 91.8496 44.0765 91.7864C43.5868 91.6758 36.2407 90.0486 27.0305 90.0486C22.0225 90.0486 16.4616 90.5225 11.1692 91.9917V70.6644H16.9197C20.2531 70.6644 23.3021 69.4795 25.5296 67.3468C27.6466 65.3088 31.6593 64.045 36.0037 64.045C39.5583 64.045 42.9233 64.8823 45.214 66.3515C47.4415 67.7733 49.8902 68.5316 52.2915 68.5316H62.6393C65.088 68.5316 67.0785 70.5222 67.0785 72.9709C67.0785 74.2189 66.5572 75.3406 65.7357 76.1463C65.6883 76.1937 65.6409 76.2253 65.5935 76.2727C64.8036 76.9678 63.7767 77.3943 62.6393 77.3943H45.1824C44.5347 77.3943 43.9976 77.9315 43.9976 78.5792C43.9976 79.2269 44.5347 79.7641 45.1824 79.7641H62.655C64.3928 79.7641 65.9884 79.1005 67.1891 78.0263L88.9588 65.8302C91.0441 64.6611 93.6508 65.2614 95.0252 67.2204C95.7678 68.3105 96.0363 69.6059 95.752 70.8855Z" fill="white"/>
<path d="M57.4895 37.7887C58.1439 37.7887 58.6744 37.2582 58.6744 36.6038C58.6744 35.9494 58.1439 35.4189 57.4895 35.4189C56.8352 35.4189 56.3047 35.9494 56.3047 36.6038C56.3047 37.2582 56.8352 37.7887 57.4895 37.7887Z" fill="white"/>
<path d="M63.4778 37.7887C64.1322 37.7887 64.6627 37.2582 64.6627 36.6038C64.6627 35.9494 64.1322 35.4189 63.4778 35.4189C62.8234 35.4189 62.293 35.9494 62.293 36.6038C62.293 37.2582 62.8234 37.7887 63.4778 37.7887Z" fill="white"/>
<path d="M100.223 30.0953C100.129 29.8843 99.9762 29.7049 99.7828 29.5788C99.5894 29.4527 99.3636 29.3852 99.1327 29.3844H95.3254C95.0568 27.8362 94.7251 26.4143 94.3143 25.0715C89.6539 10.0792 75.9886 0 60.2854 0C46.62 0 34.3766 7.64625 28.3101 19.9687C28.0257 20.5533 28.2627 21.2642 28.8472 21.5485C29.4318 21.8329 30.1427 21.5959 30.427 21.0114C36.0985 9.51042 47.5363 2.36971 60.2854 2.36971C74.9459 2.36971 87.7108 11.7853 92.0552 25.7824C92.5134 27.2832 92.8767 28.9104 93.1453 30.743C93.2243 31.3275 93.7298 31.7541 94.3143 31.7541H96.4629L91.2969 37.4414L86.1468 31.7541H87.3948C87.7424 31.7541 88.0741 31.5961 88.3111 31.3275C88.5481 31.059 88.627 30.6956 88.5639 30.348C88.2321 28.5787 87.7108 26.7777 86.9998 24.9767C82.5922 13.9655 72.1181 6.84055 60.2854 6.84055C48.3262 6.84055 37.4888 14.392 33.3181 25.656C33.0969 26.2722 33.3971 26.9515 34.0132 27.1726C34.6293 27.3938 35.3086 27.0936 35.5298 26.4775C39.3529 16.1456 49.2899 9.21026 60.2696 9.21026C71.1228 9.21026 80.7438 15.7349 84.7881 25.8456C85.2463 27.0147 85.6254 28.1995 85.9098 29.3686H83.4611C82.9871 29.3686 82.5606 29.6371 82.371 30.0795C82.1814 30.5218 82.2604 31.0116 82.5764 31.3591L90.3964 40.0007C90.5047 40.1247 90.6382 40.2241 90.7881 40.2922C90.938 40.3604 91.1007 40.3956 91.2653 40.3956C91.4299 40.3956 91.5927 40.3604 91.7425 40.2922C91.8924 40.2241 92.026 40.1247 92.1342 40.0007L99.97 31.3591C100.137 31.2 100.251 30.9933 100.296 30.7671C100.341 30.541 100.316 30.3064 100.223 30.0953ZM57.3311 41.8964C56.873 42.3546 56.873 43.1129 57.3311 43.571C58.1684 44.4083 59.2901 44.8665 60.4749 44.8665C61.6598 44.8665 62.7814 44.4083 63.6187 43.571C64.0769 43.1129 64.0769 42.3546 63.6187 41.8964C63.1606 41.4383 62.4023 41.4383 61.9441 41.8964C61.1542 42.6863 59.7956 42.6863 59.0057 41.8964C58.5476 41.4225 57.8051 41.4225 57.3311 41.8964ZM87.3316 41.0275C87.0259 40.9556 86.7043 41.0063 86.4355 41.1687C86.1668 41.3311 85.9724 41.5924 85.894 41.8964C85.1673 44.8822 83.9034 47.7259 82.1498 50.3326C81.7865 50.8697 81.9287 51.6122 82.4816 51.9756C82.7416 52.1507 83.0604 52.2157 83.3683 52.1565C83.6761 52.0973 83.948 51.9187 84.1246 51.6596C86.0362 48.816 87.4106 45.7195 88.2005 42.4651C88.2382 42.3137 88.2457 42.1563 88.2224 42.0019C88.1991 41.8476 88.1456 41.6993 88.0648 41.5658C87.9841 41.4322 87.8778 41.3158 87.7519 41.2235C87.6261 41.1311 87.4832 41.0645 87.3316 41.0275ZM84.8355 58.437C84.8351 58.5927 84.8655 58.7469 84.9249 58.8909C84.9843 59.0348 85.0715 59.1656 85.1816 59.2757C85.2917 59.3858 85.4225 59.4731 85.5664 59.5325C85.7104 59.5919 85.8647 59.6222 86.0204 59.6218C86.3521 59.6218 86.6839 59.4796 86.9051 59.2269C90.6018 55.0404 93.3033 50.0166 94.7093 44.6927C94.7499 44.5423 94.7605 44.3853 94.7404 44.2308C94.7202 44.0763 94.6699 43.9273 94.5921 43.7923C94.5143 43.6573 94.4107 43.539 94.2871 43.4441C94.1636 43.3492 94.0225 43.2796 93.872 43.2393C93.2401 43.0813 92.5924 43.4446 92.4186 44.0765C91.1389 48.9423 88.6744 53.5554 85.3095 57.4417C85.0251 57.6787 84.8355 58.042 84.8355 58.437ZM21.438 37.8363H24.7397C24.8187 39.2423 24.9925 40.6326 25.2611 42.007C26.4143 48.3578 29.3212 54.3137 33.6656 59.2269C33.871 59.4638 34.1712 59.5744 34.4713 59.5744C34.6293 59.5744 34.8031 59.5428 34.9611 59.4796C35.4192 59.3059 35.7194 58.8003 35.7194 58.3106C35.7194 57.884 35.4982 57.5365 35.1507 57.3469C31.2485 52.8287 28.6261 47.3783 27.5834 41.5805C27.2832 39.9375 27.1095 38.2787 27.0621 36.6199C27.0558 36.3105 26.928 36.016 26.7063 35.8001C26.4845 35.5843 26.1867 35.4645 25.8772 35.4666H24.1078L29.258 29.7793L34.4082 35.4666H32.7336C32.4176 35.4666 32.1016 35.593 31.8805 35.83C31.6593 36.0669 31.5329 36.3829 31.5487 36.6989C31.7473 42.0388 33.4385 47.2162 36.4303 51.6438C36.7937 52.1809 37.5362 52.3389 38.0733 51.9598C38.6104 51.5964 38.7684 50.8539 38.4051 50.3168C36.5725 47.5837 35.277 44.6295 34.5661 41.5015C34.2818 40.3324 34.0922 39.1002 33.9816 37.8205H37.078C37.309 37.8215 37.5353 37.7553 37.7292 37.6298C37.9232 37.5044 38.0764 37.3252 38.1702 37.1141C38.2641 36.903 38.2944 36.6692 38.2575 36.4411C38.2207 36.2131 38.1182 36.0007 37.9627 35.83L30.1269 27.1884C30.0157 27.0637 29.8794 26.9638 29.727 26.8955C29.5745 26.8271 29.4093 26.7917 29.2422 26.7917C29.0751 26.7917 28.9099 26.8271 28.7574 26.8955C28.6049 26.9638 28.4687 27.0637 28.3575 27.1884L20.5533 35.8616C20.2373 36.2091 20.1583 36.7147 20.3479 37.1412C20.5375 37.5678 20.964 37.8363 21.438 37.8363Z" fill="white"/>
<path d="M43.5242 51.2327C41.9694 51.654 40.5964 52.5753 39.6171 53.8544C38.6378 55.1335 38.1066 56.6993 38.1055 58.3102C38.1055 58.9579 38.6426 59.495 39.2903 59.495C39.938 59.495 40.4752 58.9579 40.4752 58.3102C40.4752 56.0669 41.9918 54.1079 44.1403 53.5234L52.7503 51.2011V51.4538C52.7503 55.6087 56.131 58.9737 60.2701 58.9895H60.2859C62.2923 58.9895 64.188 58.1996 65.6099 56.7936C67.0317 55.3717 67.8216 53.476 67.8216 51.4696V51.2169L76.4315 53.5392C78.5959 54.1237 80.0967 56.0827 80.0967 58.326V63.3813C80.0967 64.0291 80.6338 64.5662 81.2815 64.5662C81.9292 64.5662 82.4664 64.0291 82.4664 63.3813V58.326C82.4664 55.0084 80.2389 52.1016 77.0476 51.2485L67.8216 48.7682V48.4206C68.2481 48.1046 68.6589 47.7571 69.0538 47.3937C70.2314 46.2544 71.1672 44.8894 71.8051 43.3801C72.443 41.8709 72.7699 40.2485 72.7664 38.61V33.6494C74.8675 27.8989 74.8675 24.0126 72.7506 21.8167C70.5704 19.5576 66.9369 20.0789 65.3097 20.4581C63.9353 18.8151 62.1185 17.7092 59.891 17.1879C56.4786 16.3822 52.8608 17.2827 50.191 19.5892C44.3141 24.6761 46.2573 32.3224 48.232 35.9401V38.0729C48.232 41.9434 50.033 45.498 52.7661 47.8835V48.7682L43.5242 51.2327ZM63.9353 55.1032C62.9558 56.0827 61.6604 56.6198 60.2859 56.6198C58.9186 56.6156 57.6086 56.0695 56.6432 55.1011C55.6779 54.1328 55.1358 52.8212 55.1358 51.4538V49.4791C56.6876 50.3165 58.4129 50.7816 60.1753 50.8377H60.5071C62.2449 50.8377 63.9195 50.4743 65.4677 49.7792V51.4538C65.4361 52.8441 64.9148 54.1395 63.9353 55.1032ZM50.5859 38.0571V35.6242C50.5859 35.5926 50.5701 35.5768 50.5701 35.5452C50.5701 35.4662 50.5385 35.403 50.5227 35.324C50.5069 35.245 50.4753 35.166 50.4437 35.1029C50.4279 35.0871 50.4279 35.0555 50.4279 35.0397C50.2384 34.6921 45.6885 26.6035 51.7234 21.3744C52.7566 20.4918 53.9815 19.8624 55.3006 19.536C56.6197 19.2097 57.9967 19.1954 59.3222 19.4944C61.2496 19.9525 62.7662 20.9636 63.8563 22.496C64.1564 22.9226 64.6936 23.0963 65.1991 22.9384C66.3208 22.575 69.5594 21.9431 71.0286 23.4755C71.9291 24.4076 72.5768 26.5561 70.9812 31.5167L70.9496 31.4851C70.4283 31.0901 70.0333 30.553 69.8121 29.9527C69.1802 28.2623 67.9006 26.9195 66.305 26.2559C64.899 25.6714 63.3665 25.6872 61.9921 26.3033C61.1548 26.6825 60.3649 27.2038 59.6066 27.8831C58.524 29.0601 57.0321 29.778 55.4369 29.8897C53.8417 30.0013 52.2642 29.4981 51.0283 28.4835C50.7844 28.2844 50.472 28.1894 50.1586 28.219C49.8452 28.2485 49.556 28.4003 49.3537 28.6415C48.9429 29.147 49.0061 29.8895 49.5117 30.316C53.0504 33.2229 58.248 32.8437 61.2654 29.5577C61.7551 29.1154 62.3397 28.7204 62.9558 28.4519C63.9511 28.0095 64.82 28.1991 65.3887 28.4361C66.3682 28.8468 67.1739 29.6999 67.5846 30.79C67.9796 31.8169 68.6273 32.7015 69.4962 33.3651L70.3651 34.0286V38.5626C70.3651 41.2483 69.3066 43.776 67.3792 45.6559C65.4519 47.5359 62.9084 48.4838 60.2069 48.468C55.0884 48.3416 50.5859 43.4758 50.5859 38.0571Z" fill="white"/>
</svg>
