<svg width="81" height="98" viewBox="0 0 81 98" fill="none" xmlns="http://www.w3.org/2000/svg">
<path d="M0 73.1489V85.9552C0 88.3888 1.97953 90.3687 4.41286 90.3687H19.6816C20.3756 90.3687 20.9381 89.8062 20.9381 89.1122C20.9381 88.4183 20.3756 87.8558 19.6816 87.8558H9.60974V82.1859C9.60974 81.4919 9.04729 80.9295 8.3533 80.9295C7.65931 80.9295 7.09686 81.4919 7.09686 82.1859V87.8558H4.41306C3.36557 87.8558 2.51307 87.0037 2.51307 85.9554V73.1491C2.51307 69.6799 5.34025 66.8568 8.81564 66.8568H25.1701C26.9325 66.8568 28.6205 67.598 29.801 68.8907C29.9123 69.0126 30.0464 69.1113 30.1958 69.1813C30.3452 69.2513 30.507 69.2912 30.6718 69.2987C30.8366 69.3062 31.0013 69.2811 31.1564 69.2249C31.3116 69.1687 31.4541 69.0825 31.5759 68.9712C31.6977 68.86 31.7965 68.7258 31.8665 68.5764C31.9365 68.427 31.9764 68.2653 31.9838 68.1004C31.9913 67.9356 31.9662 67.771 31.9101 67.6158C31.8539 67.4607 31.7677 67.3182 31.6564 67.1964C30.0015 65.3833 27.6372 64.3438 25.1703 64.3438H8.81564C3.9546 64.3438 0 68.2937 0 73.1489ZM16.9932 40.6344C11.4975 40.6344 7.02663 45.1056 7.02663 50.6019C7.02663 56.097 11.4975 60.5684 16.9932 60.5684C22.4888 60.5684 26.9601 56.0972 26.9601 50.6019C26.9601 45.1056 22.4888 40.6344 16.9932 40.6344ZM16.9932 58.0553C12.8832 58.0553 9.5397 54.7119 9.5397 50.6019C9.5397 46.4919 12.8832 43.1475 16.9932 43.1475C21.1032 43.1475 24.4472 46.4919 24.4472 50.6019C24.4472 54.7119 21.1032 58.0553 16.9932 58.0553ZM76.5854 90.3687C79.0189 90.3687 80.9982 88.3888 80.9982 85.9552V73.1489C80.9982 68.2937 77.0438 64.3438 72.1828 64.3438H55.8283C53.4022 64.3438 51.0718 65.3528 49.4153 67.1158C49.2836 67.2338 49.1783 67.3783 49.1064 67.5399C49.0345 67.7015 48.9977 67.8765 48.9982 68.0533C48.9982 68.7473 49.5655 69.3097 50.2597 69.3097C50.4343 69.3098 50.607 69.2734 50.7667 69.2029C50.9264 69.1324 51.0697 69.0294 51.1873 68.9004C52.3913 67.582 54.0395 66.8566 55.8285 66.8566H72.183C75.6584 66.8566 78.4855 69.6797 78.4855 73.1489V85.9552C78.4855 87.0037 77.633 87.8556 76.5856 87.8556H73.9018V82.1857C73.9018 81.4917 73.3393 80.9293 72.6453 80.9293C71.9513 80.9293 71.3889 81.4917 71.3889 82.1857V87.8556H61.2064C60.5124 87.8556 59.95 88.4181 59.95 89.112C59.95 89.806 60.5124 90.3685 61.2064 90.3685L76.5854 90.3687ZM64.0053 40.6344C58.5096 40.6344 54.0383 45.1056 54.0383 50.6019C54.0383 56.097 58.5096 60.5684 64.0053 60.5684C69.5009 60.5684 73.9718 56.0972 73.9718 50.6019C73.9718 45.1056 69.5009 40.6344 64.0053 40.6344ZM64.0053 58.0553C59.8953 58.0553 56.5512 54.7119 56.5512 50.6019C56.5512 46.4919 59.8951 43.1475 64.0053 43.1475C68.1155 43.1475 71.4587 46.4919 71.4587 50.6019C71.4587 54.7119 68.1155 58.0553 64.0053 58.0553ZM40.4462 67.9532C45.9419 67.9532 50.4132 63.4819 50.4132 57.9857C50.4132 52.4906 45.9419 48.0192 40.4462 48.0192C34.9506 48.0192 30.4793 52.4904 30.4793 57.9857C30.4791 63.4817 34.9506 67.9532 40.4462 67.9532ZM40.4462 50.5322C44.5563 50.5322 47.9003 53.8757 47.9003 57.9857C47.9003 62.0957 44.5564 65.4401 40.4462 65.4401C36.336 65.4401 32.9922 62.0957 32.9922 57.9857C32.9922 53.8757 36.336 50.5322 40.4462 50.5322ZM38.749 0.851869C31.781 1.61551 26.0486 7.20604 25.1191 14.1442C24.4045 19.4775 26.4207 24.7143 30.5111 28.155C31.5738 29.0492 32.1834 30.2959 32.1834 31.5739V32.1148C32.1833 32.2798 32.2158 32.4432 32.2789 32.5957C32.3421 32.7481 32.4346 32.8866 32.5513 33.0033C32.668 33.12 32.8065 33.2125 32.9589 33.2757C33.1114 33.3388 33.2748 33.3713 33.4398 33.3712H47.558C47.723 33.3713 47.8864 33.3388 48.0389 33.2757C48.1913 33.2125 48.3299 33.12 48.4465 33.0033C48.5632 32.8866 48.6558 32.7481 48.7189 32.5957C48.782 32.4432 48.8145 32.2798 48.8145 32.1148V31.7565C48.8145 30.3537 49.3882 29.0746 50.3891 28.2481C53.9691 25.2884 56.0227 20.9262 56.0227 16.2791C56.0227 7.2724 48.2427 -0.199303 38.749 0.851869ZM48.7881 26.3105C47.4306 27.4325 46.5701 29.0562 46.3546 30.8584H34.657C34.4646 29.0983 33.5669 27.4424 32.1288 26.2319C28.6994 23.3479 27.0101 18.954 27.6095 14.4779C28.3878 8.66969 33.1882 3.98928 39.023 3.34923C46.9618 2.46976 53.5098 8.70093 53.5098 16.2793C53.5098 20.1742 51.7889 23.8308 48.7881 26.3105ZM48.3395 35.9206C48.3396 35.7556 48.3071 35.5922 48.2439 35.4398C48.1808 35.2873 48.0883 35.1488 47.9716 35.0321C47.8549 34.9154 47.7164 34.8229 47.5639 34.7598C47.4115 34.6966 47.2481 34.6641 47.0831 34.6642H33.1965C32.5025 34.6642 31.9401 35.2266 31.9401 35.9206C31.9401 36.6146 32.5025 37.177 33.1965 37.177H47.0831C47.2481 37.1771 47.4115 37.1446 47.5639 37.0815C47.7164 37.0183 47.8549 36.9258 47.9716 36.8091C48.0883 36.6924 48.1808 36.5539 48.2439 36.4015C48.3071 36.249 48.3396 36.0856 48.3395 35.9206ZM46.4454 39.5211C46.4454 39.3561 46.4129 39.1927 46.3498 39.0403C46.2866 38.8878 46.1941 38.7493 46.0774 38.6326C45.9608 38.516 45.8222 38.4234 45.6698 38.3603C45.5173 38.2971 45.3539 38.2647 45.1889 38.2647H34.984C34.29 38.2647 33.7275 38.8271 33.7275 39.5211C33.7275 40.2151 34.29 40.7776 34.984 40.7776H45.1889C45.3539 40.7776 45.5173 40.7451 45.6698 40.682C45.8222 40.6188 45.9608 40.5263 46.0774 40.4096C46.1941 40.2929 46.2866 40.1544 46.3498 40.002C46.4129 39.8495 46.4454 39.6861 46.4454 39.5211ZM38.0554 41.8642C37.3614 41.8642 36.799 42.4267 36.799 43.1207C36.799 43.8147 37.3614 44.3771 38.0554 44.3771H42.1173C42.8113 44.3771 43.3737 43.8147 43.3737 43.1207C43.3737 42.4267 42.8113 41.8642 42.1173 41.8642H38.0554Z" fill="white"/>
<path d="M23.4531 80.5348V93.3421C23.4531 95.7747 25.4321 97.7536 27.865 97.7536H53.0281C55.4611 97.7536 57.44 95.7747 57.44 93.3421V80.5348C57.44 75.6757 53.4866 71.7217 48.6265 71.7217H32.2666C27.4066 71.7219 23.4531 75.6757 23.4531 80.5348ZM32.2666 74.2348H48.6265C52.1006 74.2348 54.9272 77.0608 54.9272 80.5348V93.3421C54.9272 94.3884 54.075 95.2405 53.0281 95.2405H50.3472V89.5697C50.3472 88.8757 49.7848 88.3132 49.0908 88.3132C48.3968 88.3132 47.8344 88.8757 47.8344 89.5697V95.2405H33.0588V89.5697C33.0588 88.8757 32.4963 88.3132 31.8024 88.3132C31.1084 88.3132 30.5459 88.8757 30.5459 89.5697V95.2405H27.865C26.8181 95.2405 25.966 94.3884 25.966 93.3421V80.5348C25.9662 77.061 28.7928 74.2348 32.2666 74.2348Z" fill="white"/>
</svg>
