<svg width="94" height="98" viewBox="0 0 94 98" fill="none" xmlns="http://www.w3.org/2000/svg">
<path d="M0 33.7911V39.8218C0 39.923 0.0380239 40.1578 0.0964178 40.2996C0.104372 40.3186 0.117758 40.3335 0.126488 40.3521C0.165676 40.4358 0.206804 40.519 0.265003 40.5939L24.4191 71.6189L24.6851 94.5196C24.7022 96.8385 27.069 98.3385 29.0953 97.5334L40.661 93.4349C41.8762 92.9492 42.683 91.7859 42.7174 90.4574L42.9932 71.6208L53.8099 57.7308C54.0145 57.4678 54.1063 57.1343 54.0651 56.8036C54.0239 56.4729 53.853 56.1721 53.5901 55.9674C53.0444 55.5423 52.2532 55.6401 51.8272 56.1868L40.7514 70.4091C40.5835 70.6249 40.4904 70.8896 40.4864 71.163L40.2047 90.4068C40.1969 90.7164 40.0103 90.9894 39.7758 91.084L28.214 95.1805C27.7412 95.3683 27.2026 95.0306 27.198 94.4949L26.9272 71.1663C26.924 70.8917 26.8309 70.6257 26.6622 70.4091L3.82703 41.0781H38.3454C39.0393 41.0781 39.6017 40.5157 39.6017 39.8218C39.6017 39.1278 39.0393 38.5654 38.3454 38.5654H2.51288V33.7911C2.51313 33.4766 2.63812 33.1751 2.86042 32.9527C3.08271 32.7303 3.38416 32.6052 3.6986 32.6048H35.2693C35.4343 32.6048 35.5977 32.5723 35.7501 32.5092C35.9026 32.4461 36.0411 32.3535 36.1578 32.2369C36.2744 32.1202 36.367 31.9817 36.4301 31.8292C36.4932 31.6768 36.5257 31.5134 36.5257 31.3484C36.5257 31.0388 36.4013 30.7651 36.2157 30.546C36.3468 30.0674 36.4137 29.5734 36.4147 29.0771C36.4147 25.9954 33.9078 23.4885 30.8267 23.4885C27.7456 23.4885 25.2388 25.9954 25.2388 29.0771C25.2388 29.4207 25.2813 29.7584 25.3426 30.0921H3.6986C1.65889 30.0921 0 31.7514 0 33.7911ZM27.7515 29.0771C27.7515 27.3809 29.1306 26.0014 30.8267 26.0014C32.5229 26.0014 33.902 27.3809 33.902 29.0771C33.902 29.4327 33.838 29.7706 33.7253 30.0921H27.9284C27.8121 29.7663 27.7523 29.423 27.7515 29.0771ZM6.31333 21.1128C6.31333 24.1949 8.8202 26.7027 11.9023 26.7027C14.9843 26.7027 17.4922 24.1949 17.4922 21.1128C17.4922 18.0307 14.9843 15.5233 11.9023 15.5233C8.8202 15.5233 6.31333 18.0307 6.31333 21.1128ZM14.9795 21.1128C14.9795 22.8093 13.5994 24.19 11.9023 24.19C10.2061 24.19 8.82602 22.8095 8.82602 21.1128C8.82602 19.4161 10.2061 18.0362 11.9023 18.0362C13.5994 18.0362 14.9795 19.4163 14.9795 21.1128ZM20.28 11.3527C23.202 11.3527 25.5794 8.97541 25.5794 6.05281C25.5794 3.1302 23.202 0.75293 20.28 0.75293C17.357 0.75293 14.9795 3.1302 14.9795 6.05281C14.9795 8.97541 17.3568 11.3527 20.28 11.3527ZM20.28 3.26561C21.816 3.26561 23.0666 4.51614 23.0666 6.05281C23.0666 7.58948 21.816 8.84 20.28 8.84C18.7429 8.84 17.4924 7.58948 17.4924 6.05281C17.4924 4.51614 18.7429 3.26561 20.28 3.26561ZM41.6465 12.7363C41.6465 9.81368 39.2692 7.43641 36.347 7.43641C33.424 7.43641 31.0465 9.81368 31.0465 12.7363C31.0465 15.6589 33.4238 18.0362 36.347 18.0362C39.269 18.0362 41.6465 15.6589 41.6465 12.7363ZM33.5594 12.7363C33.5594 11.1996 34.8099 9.9491 36.347 9.9491C37.8831 9.9491 39.1336 11.1996 39.1336 12.7363C39.1336 14.273 37.8831 15.5235 36.347 15.5235C34.8099 15.5233 33.5594 14.2728 33.5594 12.7363Z" fill="white"/>
<path d="M86.9556 13.7962L83.7166 10.5572C82.1609 9.00152 79.6275 8.99939 78.0697 10.5572L76.6121 12.0147C75.2858 11.2971 73.8888 10.7183 72.4435 10.2877V8.22688C72.4435 6.02479 70.6521 4.2334 68.4496 4.2334H63.8697C61.667 4.2334 59.8758 6.02479 59.8758 8.22688V10.2881C58.4307 10.7182 57.034 11.2968 55.7081 12.0147L54.2506 10.5566C52.6908 8.99881 50.1585 9.00133 48.6027 10.5572L45.3633 13.7962C43.8066 15.3529 43.8066 17.8863 45.3633 19.4441L46.8208 20.9017C46.1023 22.2275 45.5233 23.6244 45.0932 25.0697H43.0329C40.8303 25.0697 39.0391 26.8611 39.0391 29.0632V33.6436C39.0391 35.8456 40.8305 37.6374 43.0329 37.6374H45.0932C45.5239 39.0826 46.1028 40.4794 46.8208 41.8055L45.3633 43.263C43.8066 44.8197 43.8066 47.3537 45.3633 48.9104L48.6025 52.1496C50.1591 53.7062 52.6935 53.7062 54.2504 52.1496L55.7069 50.6921C57.0331 51.4102 58.4301 51.9889 59.8756 52.419V54.4799C59.8756 56.682 61.667 58.4738 63.8695 58.4738H68.4494C70.6521 58.4738 72.4433 56.682 72.4433 54.4799V52.419C73.8887 51.9888 75.2857 51.41 76.6119 50.6921L78.0695 52.1496C79.6273 53.7068 82.1605 53.7058 83.7164 52.1496L86.9556 48.9104C88.5123 47.3537 88.5123 44.8197 86.9556 43.263L85.4981 41.8055C86.216 40.4794 86.795 39.0826 87.2257 37.6374H89.2859C91.4886 37.6374 93.2798 35.8456 93.2798 33.6436V29.0632C93.2798 26.8611 91.4884 25.0697 89.2859 25.0697H87.2257C86.7956 23.6243 86.2166 22.2275 85.4981 20.9017L86.9556 19.4441C88.5125 17.8865 88.5125 15.3531 86.9556 13.7962ZM85.179 17.6675L83.043 19.8028C82.8447 20.001 82.7183 20.2599 82.6842 20.5382C82.6501 20.8166 82.7101 21.0983 82.8547 21.3385C83.8442 22.984 84.5833 24.7676 85.0474 26.6307C85.1152 26.9027 85.2721 27.1441 85.493 27.3167C85.7139 27.4892 85.9862 27.5829 86.2665 27.5828H89.2858C90.1025 27.5828 90.7669 28.2469 90.7669 29.0634V33.6438C90.7669 34.4605 90.1025 35.1249 89.2858 35.1249H86.2665C85.9862 35.1248 85.7139 35.2185 85.493 35.391C85.2721 35.5636 85.1152 35.8051 85.0474 36.0771C84.5832 37.94 83.8442 39.7234 82.8547 41.3686C82.7101 41.6089 82.6502 41.8906 82.6843 42.1689C82.7184 42.4472 82.8447 42.7061 83.043 42.9043L85.179 45.0403C85.7561 45.6174 85.7561 46.5568 85.179 47.1345L81.9398 50.3737C81.3626 50.9514 80.4233 50.9505 79.8461 50.3737L77.7102 48.2378C77.5118 48.0395 77.2529 47.9133 76.9746 47.8791C76.6962 47.845 76.4145 47.9049 76.1741 48.0494C74.5289 49.0389 72.7455 49.7779 70.8826 50.2422C70.6106 50.31 70.3691 50.4669 70.1966 50.6878C70.024 50.9087 69.9303 51.181 69.9304 51.4613V54.4805C69.9304 55.2972 69.266 55.9617 68.4492 55.9617H63.8693C63.0525 55.9617 62.3881 55.2972 62.3881 54.4805V51.4613C62.3881 51.181 62.2944 50.9087 62.1219 50.6878C61.9493 50.4669 61.7079 50.31 61.4359 50.2422C59.573 49.7779 57.7896 49.0389 56.1444 48.0494C55.904 47.905 55.6223 47.8451 55.3439 47.8792C55.0656 47.9133 54.8067 48.0395 54.6083 48.2378L52.4733 50.3731C51.8952 50.9509 50.9549 50.9503 50.3787 50.3737L47.1395 47.1345C46.5624 46.5568 46.5624 45.6174 47.1395 45.0403L49.2755 42.9043C49.4738 42.7061 49.6002 42.4473 49.6343 42.1689C49.6684 41.8906 49.6084 41.6089 49.4638 41.3686C48.4743 39.7234 47.7353 37.94 47.271 36.0771C47.2033 35.8051 47.0464 35.5636 46.8255 35.391C46.6046 35.2185 46.3323 35.1248 46.052 35.1249H43.0327C42.216 35.1249 41.5516 34.4605 41.5516 33.6438V29.0634C41.5516 28.2467 42.216 27.5828 43.0327 27.5828H46.052C46.3323 27.5829 46.6046 27.4893 46.8255 27.3167C47.0464 27.1442 47.2033 26.9027 47.271 26.6307C47.7353 24.7676 48.4743 22.984 49.4638 21.3385C49.6084 21.0983 49.6683 20.8165 49.6342 20.5382C49.6001 20.2599 49.4738 20.0011 49.2755 19.8028L47.1395 17.6675C46.5624 17.0898 46.5624 16.1504 47.1395 15.5729L50.3787 12.3337C50.9549 11.7571 51.8952 11.7559 52.4733 12.3337L54.6083 14.4696C54.8063 14.6681 55.0651 14.7945 55.3434 14.8286C55.6216 14.8628 55.9033 14.8027 56.1434 14.658C57.7892 13.6689 59.5729 12.93 61.4359 12.4656C61.7079 12.3977 61.9494 12.2409 62.1219 12.02C62.2945 11.7991 62.3881 11.5268 62.3881 11.2465V8.22688C62.3881 7.41014 63.0525 6.74628 63.8693 6.74628H68.4492C69.266 6.74628 69.9304 7.41034 69.9304 8.22688V11.2467C69.9304 11.527 70.0241 11.7992 70.1966 12.0201C70.3691 12.241 70.6106 12.3979 70.8826 12.4658C72.7455 12.9297 74.5289 13.6686 76.1741 14.6582C76.4144 14.8028 76.6962 14.8629 76.9746 14.8287C77.253 14.7946 77.512 14.6682 77.7102 14.4698L79.8461 12.3339C80.4233 11.7573 81.3626 11.7561 81.9398 12.3339L85.179 15.5731C85.7561 16.1506 85.7561 17.09 85.179 17.6675Z" fill="white"/>
<path d="M66.157 20.8369C60.3599 20.8369 55.6445 25.5529 55.6445 31.3494C55.6445 37.1455 60.3599 41.8612 66.157 41.8612C71.9541 41.8612 76.6694 37.1453 76.6694 31.3494C76.6694 25.5527 71.9541 20.8369 66.157 20.8369ZM66.157 39.3484C61.7458 39.3484 58.1574 35.7598 58.1574 31.3492C58.1574 26.938 61.746 23.3496 66.157 23.3496C70.568 23.3496 74.1566 26.9382 74.1566 31.3492C74.1566 35.76 70.5681 39.3484 66.157 39.3484Z" fill="white"/>
</svg>
