<svg width="18" height="14" viewBox="0 0 18 14" fill="none" xmlns="http://www.w3.org/2000/svg">
<path d="M16.4139 6.17675e-06C16.2397 -0.000545564 16.0672 0.0358713 15.9062 0.107169C15.7452 0.178466 15.5988 0.283241 15.4756 0.415487L6.52884 10.0368L2.52444 5.73046C2.00895 5.17634 1.16289 5.17634 0.647606 5.73046L0.386612 6.01133C-0.128871 6.56544 -0.128871 7.47526 0.386612 8.02938L5.52547 13.5555C6.07663 14.1482 6.98085 14.1482 7.53221 13.5555L17.6134 2.71462C18.1289 2.16029 18.1289 1.25048 17.6134 0.69636L17.3524 0.415698C17.2291 0.283415 17.0828 0.178601 16.9218 0.107267C16.7608 0.0359326 16.588 -0.000517724 16.4139 6.17675e-06Z" fill="#009045"/>
</svg>
