<svg width="7" height="5" viewBox="0 0 7 5" fill="none" xmlns="http://www.w3.org/2000/svg">
<path d="M3.51597 4.49999C3.44991 4.50037 3.38442 4.48777 3.32326 4.4629C3.26209 4.43803 3.20647 4.40138 3.15956 4.35507L0.147631 1.35661C0.0531043 1.2625 0 1.13487 0 1.00179C0 0.868706 0.0531043 0.741074 0.147631 0.64697C0.242157 0.552867 0.370362 0.5 0.504042 0.5C0.637723 0.5 0.765928 0.552867 0.860454 0.64697L3.51597 3.29561L6.17149 0.651968C6.26752 0.570097 6.39105 0.527315 6.51739 0.532174C6.64372 0.537032 6.76357 0.589171 6.85297 0.678173C6.94237 0.767174 6.99475 0.886483 6.99963 1.01226C7.00451 1.13803 6.96153 1.261 6.87929 1.35661L3.86736 4.35507C3.77386 4.44739 3.64766 4.49944 3.51597 4.49999Z" fill="#3B3B3B"/>
</svg>
