<svg width="16" height="16" viewBox="0 0 16 16" fill="none" xmlns="http://www.w3.org/2000/svg">
<path d="M15.5897 12.9502L3.05052 0.410177C2.50366 -0.136726 1.61703 -0.136726 1.07099 0.410177L0.410152 1.07005C-0.136717 1.61712 -0.136717 2.50381 0.410152 3.04983L12.9493 15.5898C13.4964 16.1367 14.383 16.1367 14.929 15.5898L15.5888 14.93C16.1368 14.3839 16.1368 13.4971 15.5897 12.9502Z" fill="#F44336"/>
<path d="M12.9493 0.410177L0.410152 12.9502C-0.136717 13.4971 -0.136717 14.3839 0.410152 14.93L1.06998 15.5898C1.61703 16.1367 2.50366 16.1367 3.04965 15.5898L15.5897 3.05071C16.1368 2.50381 16.1368 1.61712 15.5897 1.0711L14.9299 0.411227C14.383 -0.136726 13.4964 -0.136726 12.9493 0.410177Z" fill="#F44336"/>
</svg>
