<svg width="16" height="11" viewBox="0 0 16 11" fill="none" xmlns="http://www.w3.org/2000/svg">
<path fill-rule="evenodd" clip-rule="evenodd" d="M11.1704 0.797121L15.4496 5.02971C15.7122 5.28944 15.7122 5.71055 15.4496 5.97029L11.1704 10.2029C10.9078 10.4626 10.4821 10.4626 10.2195 10.2029C9.95687 9.94315 9.95687 9.52203 10.2195 9.2623L13.3508 6.16509H1.52587C1.1545 6.16509 0.853455 5.86732 0.853455 5.5C0.853455 5.13268 1.1545 4.83491 1.52587 4.83491H13.3508L10.2195 1.7377C9.95687 1.47796 9.95687 1.05685 10.2195 0.797121C10.4821 0.537388 10.9078 0.537388 11.1704 0.797121Z" fill="#002F72"/>
<path fill-rule="evenodd" clip-rule="evenodd" d="M11.2435 0.724769L15.5228 4.95736C15.8257 5.25705 15.8257 5.74295 15.5228 6.04264L11.2435 10.2752C10.9405 10.5749 10.4493 10.5749 10.1463 10.2752C9.84331 9.97554 9.84331 9.48964 10.1463 9.18995L13.101 6.26741H1.52586C1.09737 6.26741 0.75 5.92383 0.75 5.5C0.75 5.07617 1.09737 4.73259 1.52586 4.73259H13.101L10.1463 1.81005C9.84331 1.51036 9.84331 1.02446 10.1463 0.724769C10.4493 0.425077 10.9405 0.425077 11.2435 0.724769ZM10.2195 1.7377C9.95687 1.47796 9.95687 1.05685 10.2195 0.797121C10.4821 0.537388 10.9078 0.537388 11.1704 0.797121L15.4496 5.02971C15.7122 5.28944 15.7122 5.71055 15.4496 5.97029L11.1704 10.2029C10.9078 10.4626 10.4821 10.4626 10.2195 10.2029C9.95687 9.94315 9.95687 9.52203 10.2195 9.2623L13.3508 6.16509H1.52587C1.1545 6.16509 0.853455 5.86732 0.853455 5.5C0.853455 5.13268 1.1545 4.83491 1.52587 4.83491H13.3508L10.2195 1.7377Z" fill="#002F72"/>
</svg>
