<svg width="16" height="10" viewBox="0 0 16 10" fill="none" xmlns="http://www.w3.org/2000/svg">
<path fill-rule="evenodd" clip-rule="evenodd" d="M11.1704 0.297121L15.4496 4.52971C15.7122 4.78944 15.7122 5.21055 15.4496 5.47029L11.1704 9.70288C10.9078 9.96261 10.4821 9.96261 10.2195 9.70288C9.95687 9.44315 9.95687 9.02203 10.2195 8.7623L13.3508 5.66509H1.52587C1.1545 5.66509 0.853455 5.36732 0.853455 5C0.853455 4.63268 1.1545 4.33491 1.52587 4.33491H13.3508L10.2195 1.2377C9.95687 0.977964 9.95687 0.556853 10.2195 0.297121C10.4821 0.0373879 10.9078 0.0373879 11.1704 0.297121Z" fill="#ED1B24"/>
<path fill-rule="evenodd" clip-rule="evenodd" d="M11.2435 0.224769L15.5228 4.45736C15.8257 4.75705 15.8257 5.24295 15.5228 5.54264L11.2435 9.77523C10.9405 10.0749 10.4493 10.0749 10.1463 9.77523C9.84331 9.47554 9.84331 8.98964 10.1463 8.68995L13.101 5.76741H1.52586C1.09737 5.76741 0.75 5.42383 0.75 5C0.75 4.57617 1.09737 4.23259 1.52586 4.23259H13.101L10.1463 1.31005C9.84331 1.01036 9.84331 0.52446 10.1463 0.224769C10.4493 -0.0749229 10.9405 -0.074923 11.2435 0.224769ZM10.2195 1.2377C9.95687 0.977964 9.95687 0.556853 10.2195 0.297121C10.4821 0.0373879 10.9078 0.0373879 11.1704 0.297121L15.4496 4.52971C15.7122 4.78944 15.7122 5.21055 15.4496 5.47029L11.1704 9.70288C10.9078 9.96261 10.4821 9.96261 10.2195 9.70288C9.95687 9.44315 9.95687 9.02203 10.2195 8.7623L13.3508 5.66509H1.52587C1.1545 5.66509 0.853455 5.36732 0.853455 5C0.853455 4.63268 1.1545 4.33491 1.52587 4.33491H13.3508L10.2195 1.2377Z" fill="#ED1B24"/>
</svg>
